<?xml version="1.0" encoding="UTF-8" standalone="no"?>
<!-- Created with Inkscape (http://www.inkscape.org/) -->

<svg
   xmlns:osb="http://www.openswatchbook.org/uri/2009/osb"
   xmlns:dc="http://purl.org/dc/elements/1.1/"
   xmlns:cc="http://creativecommons.org/ns#"
   xmlns:rdf="http://www.w3.org/1999/02/22-rdf-syntax-ns#"
   xmlns:svg="http://www.w3.org/2000/svg"
   xmlns="http://www.w3.org/2000/svg"
   xmlns:xlink="http://www.w3.org/1999/xlink"
   xmlns:sodipodi="http://sodipodi.sourceforge.net/DTD/sodipodi-0.dtd"
   xmlns:inkscape="http://www.inkscape.org/namespaces/inkscape"
   width="1433"
   height="522"
   viewBox="0 0 379.14791 138.1125"
   version="1.1"
   id="svg8"
   sodipodi:docname="logo_acs_noir_test.svg"
   inkscape:version="0.92.4 (5da689c313, 2019-01-14)">
  <defs
     id="defs2">
    <linearGradient
       inkscape:collect="always"
       id="linearGradient6444">
      <stop
         style="stop-color:#ffffff;stop-opacity:1;"
         offset="0"
         id="stop6440" />
      <stop
         style="stop-color:#ffffff;stop-opacity:0;"
         offset="1"
         id="stop6442" />
    </linearGradient>
    <linearGradient
       id="linearGradient6376"
       osb:paint="solid">
      <stop
         style="stop-color:#ffffff;stop-opacity:1;"
         offset="0"
         id="stop6374" />
    </linearGradient>
    <linearGradient
       id="linearGradient6370"
       osb:paint="solid">
      <stop
         style="stop-color:#ffffff;stop-opacity:1;"
         offset="0"
         id="stop6368" />
    </linearGradient>
    <linearGradient
       id="linearGradient6286"
       osb:paint="solid">
      <stop
         style="stop-color:#ffffff;stop-opacity:1;"
         offset="0"
         id="stop6284" />
    </linearGradient>
    <linearGradient
       id="linearGradient6280"
       osb:paint="solid">
      <stop
         style="stop-color:#ffffff;stop-opacity:1;"
         offset="0"
         id="stop6278" />
    </linearGradient>
    <linearGradient
       id="linearGradient6248"
       osb:paint="solid">
      <stop
         style="stop-color:#ffffff;stop-opacity:1;"
         offset="0"
         id="stop6246" />
    </linearGradient>
    <linearGradient
       id="linearGradient6216"
       osb:paint="solid">
      <stop
         style="stop-color:#ffffff;stop-opacity:1;"
         offset="0"
         id="stop6214" />
    </linearGradient>
    <linearGradient
       inkscape:collect="always"
       xlink:href="#linearGradient6444"
       id="linearGradient6446"
       x1="57.789244"
       y1="273.23995"
       x2="300.26287"
       y2="273.23995"
       gradientUnits="userSpaceOnUse" />
  </defs>
  <sodipodi:namedview
     id="base"
     pagecolor="#ffffff"
     bordercolor="#666666"
     borderopacity="1.0"
     inkscape:pageopacity="0.0"
     inkscape:pageshadow="2"
     inkscape:zoom="1.008374"
     inkscape:cx="757.08695"
     inkscape:cy="184.83025"
     inkscape:document-units="mm"
     inkscape:current-layer="layer1"
     showgrid="false"
     units="px"
     inkscape:window-width="1600"
     inkscape:window-height="837"
     inkscape:window-x="-8"
     inkscape:window-y="-8"
     inkscape:window-maximized="1" />
  <metadata
     id="metadata5">
    <rdf:RDF>
      <cc:Work
         rdf:about="">
        <dc:format>image/svg+xml</dc:format>
        <dc:type
           rdf:resource="http://purl.org/dc/dcmitype/StillImage" />
        <dc:title></dc:title>
      </cc:Work>
    </rdf:RDF>
  </metadata>
  <g
     inkscape:label="Calque 1"
     inkscape:groupmode="layer"
     id="layer1"
     transform="translate(0,-158.88748)">
    <rect
       style="fill:#d31f43;fill-opacity:1;stroke-width:0.24757794"
       id="rect4560"
       width="111.45139"
       height="59.333836"
       x="210.07385"
       y="183.923" />
    <text
       xml:space="preserve"
       style="font-style:normal;font-variant:normal;font-weight:normal;font-stretch:normal;font-size:10.58333302px;line-height:1.25;font-family:'Helvetica Neue LT Std';-inkscape-font-specification:'Helvetica Neue LT Std';letter-spacing:0px;word-spacing:0px;fill:#000000;fill-opacity:1;stroke:none;stroke-width:0.26458332"
       x="20.571348"
       y="231.0065"
       id="text12"><tspan
         sodipodi:role="line"
         id="tspan10"
         x="20.571348"
         y="231.0065"
         style="font-size:45.86111069px;stroke-width:0.26458332"
         dy="0 0 2"><tspan
   style="font-size:52.91666794px"
   id="tspan14"
   dy="-2">&lt; </tspan>ACCESS CODE<tspan
   style="font-size:52.91666794px"
   id="tspan30"
   dy="-2"> &gt;</tspan></tspan></text>
    <path
       style="fill:none;stroke:#000000;stroke-width:0.5;stroke-linecap:butt;stroke-linejoin:miter;stroke-miterlimit:4;stroke-dasharray:none;stroke-opacity:1"
       d="M 63.525238,243.25685 H 321.52524"
       id="path4568"
       inkscape:connector-curvature="0" />
    <path
       style="fill:#ffffff;fill-opacity:1;stroke:#ffffff;stroke-width:0.49584776;stroke-miterlimit:4;stroke-dasharray:none"
       d="m 227.12973,231.30545 c -3.89039,-0.82089 -6.20222,-3.57604 -7.301,-8.70105 -0.67406,-3.14398 -0.67127,-12.78189 0.005,-15.93614 1.27602,-5.95503 3.90066,-8.50501 9.13388,-8.87404 6.47325,-0.45648 10.29117,2.58825 10.66007,8.50123 l 0.13639,2.18617 h -2.49373 -2.49373 l -0.13787,-1.71755 c -0.28797,-3.58745 -2.19732,-5.55093 -5.12691,-5.27224 -3.6671,0.34885 -4.86649,2.83552 -5.20641,10.79439 -0.30381,7.11331 0.584,12.54864 2.32333,14.22377 1.111,1.07 2.8752,1.53711 4.32798,1.14591 2.30861,-0.62164 3.36978,-2.23847 3.82234,-5.82385 l 0.29412,-2.33021 h 2.47815 2.47815 l -0.16187,1.91493 c -0.21604,2.55569 -1.05052,5.15826 -2.09568,6.53597 -0.98112,1.2933 -2.92827,2.68771 -4.33258,3.1027 -1.34527,0.39753 -4.93578,0.53981 -6.30923,0.25001 z"
       id="path4592"
       inkscape:connector-curvature="0" />
    <path
       style="fill:#ffffff;fill-opacity:1;stroke:#ffffff;stroke-width:0.49584776;stroke-miterlimit:4;stroke-dasharray:none"
       d="m 250.76171,231.1795 c -1.76489,-0.49644 -2.21548,-0.74251 -3.52322,-1.92397 -2.86133,-2.58504 -4.13468,-7.08378 -4.13468,-14.60783 0,-9.63015 2.35144,-15.00905 7.197,-16.46309 0.58579,-0.17578 2.24581,-0.31862 3.68893,-0.31743 2.15998,0.002 2.85326,0.10666 3.92135,0.59323 4.68097,2.13239 6.45528,6.58165 6.45528,16.18729 0,6.56331 -0.77837,10.31189 -2.73718,13.18207 -0.94023,1.37768 -2.82204,2.78505 -4.3131,3.22567 -1.66003,0.49055 -5.02506,0.55424 -6.55438,0.12406 z m 4.24128,-3.52893 c 3.09084,-0.71716 4.36696,-4.54855 4.36415,-13.10284 -0.002,-6.65783 -0.6067,-9.74623 -2.26752,-11.58456 -2.20146,-2.43675 -5.93367,-1.89329 -7.45323,1.0853 -1.11565,2.18686 -1.40076,4.24269 -1.41534,10.20565 -0.0149,6.0875 0.24967,8.28962 1.27077,10.57734 0.70836,1.58708 1.31814,2.19395 2.69945,2.68659 1.19425,0.42592 1.47915,0.4394 2.80172,0.13252 z"
       id="path4594"
       inkscape:connector-curvature="0" />
    <path
       style="fill:#ffffff;fill-opacity:1;stroke:#ffffff;stroke-width:0.49584776;stroke-miterlimit:4;stroke-dasharray:none"
       d="m 269.33932,214.53639 v -16.28782 l 4.52618,0.002 c 5.76058,0.003 8.47854,0.31224 10.38677,1.18354 2.79638,1.27684 4.30451,3.45389 5.22068,7.53632 0.60976,2.71703 0.60732,12.64783 -0.004,15.37261 -0.89458,3.98885 -2.32923,6.07531 -5.12407,7.45208 l -1.74207,0.85814 -6.63186,0.0855 -6.63187,0.0855 z m 12.07765,11.98428 c 2.11317,-1.06755 2.95711,-3.05004 3.42852,-8.05403 0.56309,-5.97686 -0.25728,-12.48488 -1.82065,-14.44347 -1.23735,-1.55017 -2.11661,-1.83794 -5.61713,-1.8384 l -3.08306,-5.3e-4 v 12.46334 12.46334 h 2.96186 c 2.55037,0 3.1242,-0.082 4.13046,-0.59037 z"
       id="path4596"
       inkscape:connector-curvature="0" />
    <path
       style="fill:#ffffff;fill-opacity:1;stroke:#ffffff;stroke-width:0.49584776;stroke-miterlimit:4;stroke-dasharray:none"
       d="m 294.79078,214.5165 v -16.26793 h 8.78994 8.78993 v 2.09434 2.09434 l -6.23168,0.0703 -6.23165,0.0703 v 4.59175 4.59176 l 5.83809,0.0706 5.83808,0.0706 v 2.08905 2.08905 l -5.83808,0.0706 -5.83809,0.0706 -0.0711,5.18212 -0.0711,5.18213 h 6.434 6.43401 v 2.09908 2.09909 h -8.92114 -8.92112 z"
       id="path4598"
       inkscape:connector-curvature="0" />
    <text
       xml:space="preserve"
       style="font-style:normal;font-variant:normal;font-weight:normal;font-stretch:normal;font-size:12.09256744px;line-height:1.25;font-family:'Helvetica Neue LT Std';-inkscape-font-specification:'Helvetica Neue LT Std';letter-spacing:0px;word-spacing:0px;opacity:1;fill:#000000;fill-opacity:1;stroke:#ffffff;stroke-width:2;stroke-miterlimit:4;stroke-dasharray:none;stroke-opacity:1"
       x="57.331512"
       y="291.34717"
       id="text4602"
       transform="scale(1.0767223,0.92874458)"><tspan
         sodipodi:role="line"
         id="tspan4600"
         x="57.331512"
         y="291.34717"
         style="font-size:29.02216339px;letter-spacing:30.23142242px;stroke:#ffffff;stroke-width:2;stroke-miterlimit:4;stroke-dasharray:none;stroke-opacity:1">SCHOOL</tspan></text>
  </g>
</svg>
